PathFileType	3	(X/Y/Z)	D:\minhoCalibration\240510\subject1_KPNP\preferred\preferred17.trc
DataRate	CameraRate	NumFrames	NumMarkers	Units	OrigDataRate	OrigDataStartFrame	OrigNumFrames
200.0	200.0	21	10	mm	200.0	305	190	
Frame#	Time	Left_Ankle_Outer1			Left_Ankle_Inner1			Left_Knee_Outer1			Left_Knee_Inner1			Left_Wrist1			Right_Wrist1			Right_Knee_Inner1			Right_Knee_Outer1			Right_Ankle_Inner1			Right_Ankle_Outer1			
		X1	Y1	Z1	X2	Y2	Z2	X3	Y3	Z3	X4	Y4	Z4	X5	Y5	Z5	X6	Y6	Z6	X7	Y7	Z7	X8	Y8	Z8	X9	Y9	Z9	X10	Y10	Z10	
305	1.515	-479.89853	134.41214	-588.80353	-537.61658	132.69095	-577.88654	-539.84625	582.62079	-508.21017	-629.38159	526.29303	-554.28345	-547.46075	987.05359	-693.97443	-735.39618	987.05084	-997.33301	-725.97217	514.69714	-961.02887	-752.21381	550.90033	-1061.5421	-649.60449	107.57706	-1116.2595	-730.99615	104.72858	-1196.6404
306	1.52	-480.41022	134.43024	-588.87775	-537.94781	133.00232	-577.41754	-537.70862	582.82239	-505.94229	-628.18274	526.71198	-551.10535	-546.35315	986.69006	-692.55267	-735.13312	986.6485	-994.50305	-725.06317	513.97192	-961.4151	-751.29443	550.83673	-1060.7726	-649.61371	107.44241	-1116.0424	-730.9101	104.3259	-1196.5729
307	1.525	-480.93393	134.5412	-588.94489	-538.43829	133.35573	-577.08911	-535.64069	582.92871	-503.62228	-626.80786	527.32623	-547.97906	-545.24115	986.26215	-691.07477	-734.27448	986.8996	-993.82147	-724.58856	513.8219	-959.54315	-750.54913	550.72925	-1059.9177	-649.53241	107.26132	-1115.8995	-730.69244	104.68248	-1196.3308
308	1.53	-481.54724	134.62599	-589.0462	-539.01447	133.60083	-576.73828	-533.48511	583.01007	-501.28619	-625.46252	527.72717	-544.672	-544.10028	985.82452	-689.57043	-734.68549	985.73944	-990.05621	-723.88818	513.35016	-958.70703	-749.78192	550.50787	-1059.0569	-649.42566	107.1067	-1115.6667	-730.5672	104.57106	-1196.1586
309	1.535	-482.29065	134.58191	-589.09406	-539.51599	133.8555	-575.97449	-531.29565	583.07764	-498.9808	-624.07709	528.14178	-541.50861	-542.96008	985.34052	-688.07898	-733.37891	986.42432	-989.84143	-723.17975	512.91077	-957.6889	-749.10022	550.37897	-1058.0374	-649.27576	106.9512	-1115.4572	-730.49335	105.12519	-1196.0835
310	1.54	-483.07205	134.55624	-589.15833	-540.13965	134.07675	-575.46368	-529.09259	583.13123	-496.56201	-622.65936	528.54913	-538.26715	-541.86755	984.72845	-687.03333	-732.61835	985.70563	-987.67548	-722.44781	512.22339	-957.70886	-748.46368	550.14233	-1056.9338	-649.21527	106.79733	-1115.1841	-730.36353	105.26024	-1195.9264
311	1.545	-483.90231	134.56982	-589.25623	-540.76709	134.25568	-574.79218	-526.87903	583.05518	-494.0993	-621.41943	528.97937	-534.89429	-540.53973	984.32605	-684.93237	-731.9903	985.17303	-985.35809	-722.03674	511.77585	-956.19885	-747.87067	549.9361	-1055.6565	-649.05505	106.65462	-1114.9963	-730.19116	105.24384	-1195.7358
312	1.55	-484.75262	134.5766	-589.29797	-541.43304	134.42285	-574.02454	-524.71228	583.01404	-491.68268	-619.98737	529.37103	-531.6048	-539.27441	983.81171	-683.19171	-731.67053	984.50964	-982.78082	-721.52155	511.46906	-954.15387	-747.37433	549.6781	-1054.3005	-648.95319	106.55663	-1114.6647	-730.10248	105.4495	-1195.4719
313	1.555	-485.71356	134.55072	-589.21283	-542.22681	134.58464	-573.44751	-522.54742	582.89624	-489.15179	-618.57245	529.6991	-528.17657	-537.95905	983.25763	-681.43756	-731.09796	984.23529	-981.08472	-720.93536	510.90808	-952.86371	-746.95355	549.41241	-1052.9031	-648.81946	106.42463	-1114.3427	-730.01703	105.53828	-1195.0743
314	1.56	-486.7814	134.54295	-589.13647	-543.08875	134.8483	-572.77728	-520.41974	582.73615	-486.54602	-617.17181	529.97241	-524.67725	-536.60852	982.66473	-679.60968	-730.68073	983.20618	-978.60992	-720.21356	510.38922	-951.61639	-746.55225	549.11743	-1051.3992	-648.64166	106.29206	-1113.9612	-729.73236	105.60652	-1194.5194
315	1.565	-487.7821	134.56506	-589.05255	-543.94501	135.01482	-572.2475	-518.35065	582.53406	-483.92902	-615.72369	530.2135	-521.22058	-535.17334	982.00299	-677.71722	-729.98309	982.909	-976.3443	-719.88	509.88226	-950.00623	-746.33612	548.95532	-1049.9244	-648.5285	106.16932	-1113.5988	-729.6076	106.01674	-1194.3499
316	1.57	-488.86823	134.56343	-589.00525	-544.83466	135.15631	-571.61646	-516.25677	582.30481	-481.2644	-614.34827	530.45624	-517.72314	-533.66705	981.29376	-675.82568	-729.54553	982.46039	-973.50781	-719.43939	509.37109	-948.39093	-746.00739	548.45667	-1048.1171	-648.34601	106.03572	-1113.1584	-729.34094	106.00227	-1193.6439
317	1.575	-489.99905	134.53108	-588.96002	-545.86694	135.36238	-571.02814	-514.1969	581.99628	-478.50647	-613.02924	530.63995	-514.1908	-532.15479	980.53125	-673.87878	-728.59534	982.06659	-971.68103	-718.78625	508.78568	-947.05078	-745.99249	548.37781	-1046.6566	-648.23456	105.9042	-1112.7126	-729.11578	106.14731	-1193.2384
318	1.58	-491.16058	134.46878	-588.69543	-546.90222	135.56981	-570.40625	-512.23468	581.67236	-475.74164	-611.68719	530.76715	-510.61832	-530.59259	979.68591	-671.89142	-728.59509	981.17749	-968.39154	-718.52051	508.17566	-946.06763	-745.70129	547.75531	-1044.5648	-648.05798	105.81257	-1112.249	-728.96637	106.32265	-1192.859
319	1.585	-492.4213	134.42842	-588.55463	-547.96136	135.66324	-569.85077	-510.31882	581.30811	-472.96527	-610.3667	530.93439	-506.91022	-528.96234	978.76636	-669.95074	-728.05359	980.19708	-965.4928	-718.24811	507.61264	-943.74103	-745.75116	547.6532	-1043.0914	-647.97083	105.69336	-1111.8521	-728.91815	106.52206	-1192.7548
320	1.59	-493.70905	134.43915	-588.31812	-549.13232	135.85828	-569.23022	-508.40448	580.90149	-470.10486	-609.10114	531.02228	-503.23355	-527.31659	977.80176	-667.98486	-727.85083	980.02612	-962.56995	-717.75598	506.9527	-942.06781	-745.57391	547.06799	-1040.9247	-647.74414	105.6101	-1111.4866	-728.77045	106.65479	-1192.3513
321	1.595	-495.17169	134.46236	-588.02936	-550.31262	136.06621	-568.56836	-506.57022	580.45703	-467.25922	-607.82733	531.09039	-499.51514	-525.63159	976.73004	-665.96283	-727.20215	979.23914	-960.33118	-717.23737	506.29694	-940.46436	-745.61108	546.62659	-1038.9902	-647.62335	105.45605	-1111.0859	-728.58081	106.89147	-1191.8534
322	1.6	-496.61505	134.44067	-587.72992	-551.67749	136.09691	-567.82397	-504.81714	579.93726	-464.29877	-606.71564	531.10199	-495.82935	-523.96051	975.65521	-663.88342	-727.28809	977.90649	-956.17334	-716.80396	505.52029	-938.88214	-745.8938	546.46411	-1037.4135	-647.39728	105.32185	-1110.7106	-728.45435	107.08421	-1191.5406
323	1.605	-498.14185	134.37448	-587.28912	-553.05579	136.20628	-567.09869	-503.09091	579.36401	-461.39661	-605.59656	531.1087	-492.0889	-522.13348	974.45044	-661.91284	-726.62195	977.64612	-953.31641	-716.40619	504.60822	-937.1955	-745.83673	545.729	-1035.2092	-647.14685	105.22224	-1110.416	-728.38947	107.0443	-1191.2716
324	1.61	-499.80417	134.27823	-586.7655	-554.48602	136.16116	-566.38184	-501.50235	578.72095	-458.47812	-604.57703	531.04822	-488.46384	-520.36035	973.21149	-659.86438	-726.31073	976.99915	-950.07422	-716.48975	504.09097	-935.03577	-745.99359	545.19617	-1033.1825	-646.97607	105.09579	-1110.0681	-728.29327	106.68948	-1190.7341
325	1.615	-501.46591	134.29614	-586.3158	-556.07477	136.13618	-565.63007	-499.88718	578.03217	-455.52216	-603.58252	531.02582	-484.61465	-518.57147	971.99341	-657.83789	-726.20844	975.99805	-946.76843	-715.67938	503.21878	-933.5777	-746.39166	544.95789	-1031.5189	-646.81757	105.01881	-1109.7299	-728.16785	107.62383	-1190.3813
